<svg
        xmlns="http://www.w3.org/2000/svg"
        width="32"
        height="32"
        viewBox="0 0 32 32"
>
    <path
            fill="#2B292D"
            d="M24.556 5H7.444C6.1 5 5 6.1 5 7.444V16c0 1.344 1.1 2.444 2.444 2.444h17.112C25.9 18.444 27 17.344 27 16V7.444C27 6.1 25.9 5 24.556 5zm0 7.333h-4.89C19.667 14.313 17.98 16 16 16s-3.667-1.687-3.667-3.667H7.444V7.444h17.112v4.89zm-4.89 8.556H27v3.667C27 25.9 25.9 27 24.556 27H7.444C6.1 27 5 25.9 5 24.556v-3.667h7.333c0 2.029 1.638 3.667 3.667 3.667s3.667-1.638 3.667-3.667z"
    />
</svg>
