<svg
        xmlns="http://www.w3.org/2000/svg"
        width="48"
        height="48"
        viewBox="0 0 48 48"
>
    <path
            fill="#FFF"
            d="M11.808 21.066V19.8c0-.344.286-.632.64-.632h24.104c.355 0 .64.283.64.632v1.265c-2.274 0-4.316.993-5.711 2.567-1.396-1.574-3.438-2.567-5.713-2.567h-2.536c-2.274 0-4.316.993-5.712 2.567-1.396-1.574-3.438-2.567-5.712-2.567zm27.923-3.793H9.269c-.7 0-1.269-.566-1.269-1.264V5.264C8 4.566 8.568 4 9.27 4h5.71c.702 0 1.27.566 1.27 1.264v3.792h3.173V5.264c0-.698.568-1.264 1.27-1.264h7.615c.7 0 1.269.566 1.269 1.264v3.792h3.173V5.264c0-.698.568-1.264 1.27-1.264h5.71c.702 0 1.27.566 1.27 1.264V16.01c0 .698-.568 1.264-1.27 1.264zm-8.25 9.08c1.365-2.044 3.698-3.391 6.347-3.391.701 0 1.27.566 1.27 1.264v18.962c0 .698-.569 1.264-1.27 1.264h-6.347c-.701 0-1.27-.566-1.27-1.264V30.546c0-2.793-2.273-5.056-5.078-5.056h-1.266c-2.805 0-5.079 2.264-5.079 5.056v12.642c0 .697-.567 1.263-1.267 1.264h-6.348c-.7 0-1.27-.566-1.27-1.264V24.226c0-.698.57-1.264 1.27-1.264 2.649 0 4.982 1.346 6.347 3.39 1.365-2.044 3.698-3.39 6.347-3.39h1.266c2.65 0 4.984 1.346 6.348 3.39zm1.269 11.722l3.663-2.838c.047-.036.096-.069.146-.098v-3.133l-3.809 2.951v3.118zm0-6.32l3.663-2.838c.047-.037.096-.07.146-.098v-3.203s-.552.129-1.308.572c-1.497.88-2.501 2.502-2.501 4.358v1.208zm0 9.523v.645h3.81v-3.596l-3.81 2.95zM12.442 35.14c.05.029.098.061.145.097l3.664 2.839v-3.118l-3.809-2.95v3.132zm0-6.32c.05.028.098.06.145.097l3.664 2.838v-1.209c0-2.36-1.624-4.343-3.809-4.9v3.173zm0 9.508v3.595h3.81v-.644l-3.81-2.951z"
    />
</svg>
